<?xml version="1.0" encoding="UTF-8"?>
<svg xmlns="http://www.w3.org/2000/svg" xmlns:xlink="http://www.w3.org/1999/xlink" viewBox="0 0 1400 1900" font-family="Helvetica, Arial, sans-serif" font-size="12">
  <rect x="0" y="0" width="1400" height="1900" fill="white"/>

  <defs>
    <marker id="arr" viewBox="0 0 10 10" refX="9" refY="5" markerWidth="7" markerHeight="7" orient="auto">
      <path d="M 0 0 L 10 5 L 0 10 z" fill="#222"/>
    </marker>
    <marker id="arrBlue" viewBox="0 0 10 10" refX="9" refY="5" markerWidth="6" markerHeight="6" orient="auto">
      <path d="M 0 0 L 10 5 L 0 10 z" fill="#1976D2"/>
    </marker>
    <marker id="arrOrg" viewBox="0 0 10 10" refX="9" refY="5" markerWidth="7" markerHeight="7" orient="auto">
      <path d="M 0 0 L 10 5 L 0 10 z" fill="#E65100"/>
    </marker>
    <marker id="arrGreen" viewBox="0 0 10 10" refX="9" refY="5" markerWidth="7" markerHeight="7" orient="auto">
      <path d="M 0 0 L 10 5 L 0 10 z" fill="#2E7D32"/>
    </marker>

    <g id="dff_v">
      <rect x="0" y="0" width="90" height="70" fill="#FFF3E0" stroke="#E65100" stroke-width="1.6"/>
      <text x="45" y="12" text-anchor="middle" font-size="11" font-weight="bold" fill="#555">D</text>
      <text x="45" y="64" text-anchor="middle" font-size="11" font-weight="bold" fill="#555">Q</text>
      <text x="18" y="30" font-size="10" font-weight="bold" fill="#1976D2">EN</text>
      <polygon points="0,40 10,47 0,54" fill="none" stroke="#E65100" stroke-width="1.4"/>
      <text x="14" y="51" font-size="9" fill="#BF360C">clk</text>
    </g>

    <g id="mux21_v">
      <polygon points="0,0 80,0 60,40 20,40" fill="#E1F5FE" stroke="#01579B" stroke-width="1.5"/>
      <text x="8"  y="14" font-size="11" fill="#01579B">0</text>
      <text x="70" y="14" font-size="11" fill="#01579B">1</text>
      <text x="40" y="28" text-anchor="middle" font-size="10" font-weight="bold" fill="#01579B">M</text>
    </g>

    <g id="mux3_v">
      <polygon points="0,0 100,0 80,40 20,40" fill="#E1F5FE" stroke="#01579B" stroke-width="1.5"/>
      <text x="8"  y="14" font-size="11" fill="#01579B">0</text>
      <text x="46" y="14" font-size="11" fill="#01579B">1</text>
      <text x="90" y="14" font-size="11" fill="#01579B">2</text>
      <text x="50" y="28" text-anchor="middle" font-size="10" font-weight="bold" fill="#01579B">M</text>
    </g>

    <g id="sram_v">
      <rect x="0" y="0" width="140" height="90" fill="#FFCDD2" stroke="#C62828" stroke-width="1.6"/>
      <line x1="0" y1="22" x2="140" y2="22" stroke="#C62828" stroke-width="0.8"/>
      <text x="70" y="15" text-anchor="middle" font-size="10" font-weight="bold" fill="#B71C1C">SRAM</text>
    </g>

    <g id="andg_v">
      <path d="M 1 1 L 41 1 L 41 20 Q 41 40 21 40 Q 1 40 1 20 Z" fill="white" stroke="#333" stroke-width="1.5"/>
      <text x="21" y="23" text-anchor="middle" font-size="9" font-weight="bold" fill="#333">AND</text>
    </g>

    <g id="eqg_v">
      <polygon points="20,0 40,20 20,40 0,20" fill="white" stroke="#333" stroke-width="1.5"/>
      <text x="20" y="25" text-anchor="middle" font-size="10" font-weight="bold" fill="#333">=</text>
    </g>

    <g id="addg_v">
      <circle cx="18" cy="18" r="17" fill="white" stroke="#333" stroke-width="1.5"/>
      <text x="18" y="23" text-anchor="middle" font-size="16" font-weight="bold" fill="#333">+</text>
    </g>

    <g id="pregbar_h">
      <rect x="0" y="0" width="860" height="32" fill="#FFF3E0" stroke="#E65100" stroke-width="1.8"/>
      <polygon points="16,6 26,16 16,26" fill="none" stroke="#E65100" stroke-width="1.5"/>
      <text x="40" y="21" font-size="11" font-weight="bold" fill="#BF360C">▷ clk</text>
    </g>
  </defs>

  <!-- ==================== TITLE ==================== -->
  <text x="700" y="30" text-anchor="middle" font-size="17" font-weight="bold" fill="#222">RSD LSU + L1D Optimized Pipeline — SelSQ + LRB + D$ Prefetch + WayPred</text>
  <text x="700" y="52" text-anchor="middle" font-size="11" font-style="italic" fill="#666">
    resume blocks: LSU = selective store-queue lookup + load replay buffer  ·  L1D = next-line prefetcher + way predictor
  </text>

  <!-- ================ STAGE ① D$ADDR (y=80 to y=380) ================ -->
  <rect x="40" y="80" width="880" height="300" fill="#F5FAFF" stroke="#1565C0" stroke-width="1.2" stroke-dasharray="6 4" rx="4"/>
  <text x="60" y="105" font-size="15" font-weight="bold" fill="#0D47A1">① D$ADDR — Address Compute  (MemoryExecutionStage)</text>

  <!-- Inputs from scheduler: base, offset, size, destReg, alPtr -->
  <text x="130" y="145" font-size="10" fill="#333">rs1 base</text>
  <text x="200" y="145" font-size="10" fill="#333">imm offset</text>

  <!-- AGU (adder) -->
  <use xlink:href="#addg_v" x="155" y="210"/>
  <line x1="130" y1="155" x2="160" y2="217" stroke="#222" stroke-width="1.3" marker-end="url(#arr)"/>
  <line x1="210" y1="155" x2="186" y2="217" stroke="#222" stroke-width="1.3" marker-end="url(#arr)"/>
  <circle cx="160" cy="217" r="2.4" fill="white" stroke="#222" stroke-width="1"/>
  <circle cx="186" cy="217" r="2.4" fill="white" stroke="#222" stroke-width="1"/>
  <text x="154" y="208" text-anchor="end" font-size="8" fill="#333">base</text>
  <text x="192" y="208" font-size="8" fill="#333">offset</text>
  <text x="173" y="260" text-anchor="middle" font-size="10" fill="#333" font-weight="bold">AGU</text>

  <!-- AGU output: virtual addr → physical addr (simplified, skip TLB) -->
  <line x1="173" y1="245" x2="173" y2="280" stroke="#222" stroke-width="1.3" marker-end="url(#arr)"/>
  <text x="183" y="275" font-size="10" fill="#555">load_addr</text>

  <!-- forward control: size, destReg, alPtr, lqId, sqPtr -->
  <text x="450" y="190" font-size="10" fill="#666">control payload (forwarded to D$TAG):</text>
  <text x="450" y="210" font-size="10" fill="#666">  size[2:0], signExt, destReg, alPtr, lqId, sqPtr</text>

  <!-- bottom of D$ADDR: outputs into pipe reg -->
  <line x1="173" y1="280" x2="173" y2="355" stroke="#222" stroke-width="1.3"/>

  <!-- ================ PIPE REG ① → ② ================ -->
  <use xlink:href="#pregbar_h" x="60" y="385"/>
  <text x="500" y="406" text-anchor="middle" font-size="11" font-weight="bold" fill="#BF360C">D$ADDR → D$TAG  pipeline register</text>
  <line x1="173" y1="417" x2="173" y2="455" stroke="#222" stroke-width="1.3" marker-end="url(#arr)"/>
  <text x="183" y="440" font-size="10" fill="#555">load_addr, ctrl</text>

  <!-- ================ STAGE ② D$TAG (y=465 to y=1000) ================ -->
  <rect x="40" y="465" width="880" height="535" fill="#F5FAFF" stroke="#1565C0" stroke-width="1.2" stroke-dasharray="6 4" rx="4"/>
  <text x="60" y="490" font-size="15" font-weight="bold" fill="#0D47A1">② D$TAG — Tag Access + SQ Lookup  (MemoryTagAccessStage)</text>

  <!-- LEFT COLUMN: D$ tag read path (will be detailed in the D$ diagram; shown abstractly here) -->
  <rect x="80" y="520" width="280" height="260" fill="#FFF5F5" stroke="#C62828" stroke-width="1.2" stroke-dasharray="3 2" rx="4"/>
  <text x="220" y="540" text-anchor="middle" font-size="11" font-weight="bold" fill="#B71C1C">D$ Tag Access + L1D Opts</text>

  <use xlink:href="#sram_v" x="150" y="560"/>
  <text x="220" y="583" text-anchor="middle" font-size="11" font-weight="bold" fill="#B71C1C">D$ Tag</text>
  <text x="220" y="600" text-anchor="middle" font-size="10" fill="#B71C1C">2 × 256 × tag</text>
  <text x="220" y="615" text-anchor="middle" font-size="9" fill="#B71C1C">Opt D: WayPred gates ways</text>

  <line x1="173" y1="495" x2="173" y2="620" stroke="#222" stroke-width="1.3"/>
  <line x1="173" y1="620" x2="140" y2="620" stroke="#222" stroke-width="1.3"/>
  <line x1="140" y1="620" x2="140" y2="580" stroke="#222" stroke-width="1.3"/>
  <line x1="140" y1="580" x2="150" y2="580" stroke="#222" stroke-width="1.3" marker-end="url(#arr)"/>
  <circle cx="150" cy="580" r="2.3" fill="#FFCDD2" stroke="#222" stroke-width="0.8"/>
  <text x="156" y="575" font-size="8" fill="#333">addr</text>

  <!-- Tag compare -->
  <use xlink:href="#eqg_v" x="200" y="670"/>
  <line x1="220" y1="650" x2="220" y2="670" stroke="#222" stroke-width="1.3" marker-end="url(#arr)"/>
  <circle cx="220" cy="670" r="2.3" fill="white" stroke="#222" stroke-width="0.8"/>
  <text x="226" y="665" font-size="8" fill="#333">tag</text>
  <line x1="220" y1="710" x2="220" y2="740" stroke="#222" stroke-width="1.3"/>
  <text x="233" y="732" font-size="10" font-weight="bold" fill="#0D47A1">d$_hit</text>

  <rect x="90" y="805" width="250" height="95" fill="#FFF9C4" stroke="#F57F17" stroke-width="1.5" rx="5"/>
  <text x="215" y="826" text-anchor="middle" font-size="10" font-weight="bold" fill="#F57F17">L1D optimization hooks</text>
  <line x1="100" y1="834" x2="330" y2="834" stroke="#F57F17" stroke-width="0.5"/>
  <text x="105" y="853" font-size="9" fill="#F57F17">Opt C: next-line prefetcher</text>
  <text x="105" y="869" font-size="9" fill="#F57F17">  demand load → prefetch_addr = line+1</text>
  <text x="105" y="885" font-size="9" fill="#F57F17">Opt D: way predictor</text>
  <text x="105" y="899" font-size="9" fill="#F57F17">  set_idx → pred_way → tag_rd_en</text>

  <!-- RIGHT COLUMN: SQ lookup with NEW partial-tag filter -->
  <rect x="420" y="520" width="470" height="420" fill="#FFF9C4" stroke="#F57F17" stroke-width="2" rx="6"/>
  <text x="655" y="542" text-anchor="middle" font-size="12" font-weight="bold" fill="#F57F17">✦  Store Queue Lookup with Selective CAM (Optimization A)  ✦</text>

  <!-- SQ (with partial-tag column) -->
  <rect x="440" y="560" width="200" height="200" fill="white" stroke="#AD1457" stroke-width="1.5" rx="4"/>
  <text x="540" y="580" text-anchor="middle" font-size="11" font-weight="bold" fill="#880E4F">Store Queue (16 entries)</text>
  <line x1="448" y1="590" x2="632" y2="590" stroke="#AD1457" stroke-width="0.6"/>
  <!-- Columns: ptag | address | data | valid -->
  <rect x="448" y="598" width="44" height="150" fill="#FFF3E0" stroke="#E65100" stroke-width="1.2"/>
  <text x="470" y="612" text-anchor="middle" font-size="9" font-weight="bold" fill="#BF360C">ptag (6b)</text>
  <text x="470" y="624" text-anchor="middle" font-size="8" fill="#BF360C">NEW</text>

  <rect x="496" y="598" width="55" height="150" fill="#E3F2FD" stroke="#01579B" stroke-width="1"/>
  <text x="523" y="612" text-anchor="middle" font-size="9" fill="#01579B">address</text>

  <rect x="555" y="598" width="40" height="150" fill="#E3F2FD" stroke="#01579B" stroke-width="1"/>
  <text x="575" y="612" text-anchor="middle" font-size="9" fill="#01579B">data</text>

  <rect x="599" y="598" width="32" height="150" fill="#E3F2FD" stroke="#01579B" stroke-width="1"/>
  <text x="614" y="612" text-anchor="middle" font-size="9" fill="#01579B">wE</text>

  <!-- Entry rows as horizontal separators -->
  <line x1="448" y1="640" x2="631" y2="640" stroke="#AD1457" stroke-width="0.4" stroke-dasharray="2 2"/>
  <line x1="448" y1="670" x2="631" y2="670" stroke="#AD1457" stroke-width="0.4" stroke-dasharray="2 2"/>
  <line x1="448" y1="700" x2="631" y2="700" stroke="#AD1457" stroke-width="0.4" stroke-dasharray="2 2"/>
  <line x1="448" y1="730" x2="631" y2="730" stroke="#AD1457" stroke-width="0.4" stroke-dasharray="2 2"/>
  <text x="540" y="763" text-anchor="middle" font-size="9" font-style="italic" fill="#AD1457">...16 entries...</text>

  <!-- Partial-tag computation for load -->
  <rect x="670" y="580" width="170" height="50" fill="#FFE0B2" stroke="#E65100" stroke-width="1.3" rx="4"/>
  <text x="755" y="600" text-anchor="middle" font-size="10" font-weight="bold" fill="#BF360C">load ptag compute</text>
  <text x="755" y="618" text-anchor="middle" font-size="9" fill="#BF360C">ptag = addr[5:0]⊕addr[11:6]</text>

  <line x1="173" y1="495" x2="755" y2="495" stroke="#222" stroke-width="1.1"/>
  <line x1="755" y1="495" x2="755" y2="580" stroke="#222" stroke-width="1.1" marker-end="url(#arr)"/>
  <circle cx="755" cy="580" r="2.3" fill="#FFE0B2" stroke="#222" stroke-width="0.8"/>
  <text x="763" y="574" font-size="8" fill="#333">addr</text>

  <!-- Partial-tag compare (16 cheap 6-bit compares) -->
  <rect x="670" y="655" width="170" height="60" fill="#FFE0B2" stroke="#E65100" stroke-width="1.3" rx="4"/>
  <text x="755" y="675" text-anchor="middle" font-size="10" font-weight="bold" fill="#BF360C">ptag compare ×16</text>
  <text x="755" y="692" text-anchor="middle" font-size="9" fill="#BF360C">→ ptag_hit[15:0]</text>
  <text x="755" y="708" text-anchor="middle" font-size="8" fill="#BF360C">(cheap, 16×6b compare)</text>

  <!-- ptag column feeds compare -->
  <line x1="492" y1="670" x2="640" y2="670" stroke="#222" stroke-width="0.8" stroke-dasharray="2 2"/>
  <line x1="640" y1="670" x2="670" y2="670" stroke="#222" stroke-width="0.8" stroke-dasharray="2 2" marker-end="url(#arr)"/>
  <text x="580" y="662" font-size="9" fill="#BF360C">ptag col</text>
  <circle cx="670" cy="670" r="2.3" fill="#FFE0B2" stroke="#222" stroke-width="0.8"/>
  <text x="676" y="666" font-size="8" fill="#333">ptag</text>

  <!-- compute output → ptag compare -->
  <line x1="755" y1="630" x2="755" y2="655" stroke="#222" stroke-width="1.1" marker-end="url(#arr)"/>
  <circle cx="755" cy="655" r="2.3" fill="#FFE0B2" stroke="#222" stroke-width="0.8"/>
  <text x="763" y="650" font-size="8" fill="#333">load_ptag</text>

  <!-- Full address compare — gated -->
  <rect x="670" y="740" width="170" height="60" fill="#E1F5FE" stroke="#01579B" stroke-width="1.3" rx="4"/>
  <text x="755" y="760" text-anchor="middle" font-size="10" font-weight="bold" fill="#01579B">GATED full CAM ×16</text>
  <text x="755" y="777" text-anchor="middle" font-size="9" fill="#01579B">only fires for ptag_hit entries</text>
  <text x="755" y="793" text-anchor="middle" font-size="8" fill="#01579B">(≥95% CAM switching saved)</text>

  <line x1="755" y1="715" x2="755" y2="740" stroke="#1976D2" stroke-width="1" stroke-dasharray="4 2" marker-end="url(#arrBlue)"/>
  <text x="768" y="731" font-size="9" fill="#1976D2">gate</text>
  <circle cx="755" cy="740" r="2.3" fill="#E1F5FE" stroke="#1976D2" stroke-width="0.8"/>

  <!-- address column feeds full CAM -->
  <line x1="551" y1="700" x2="640" y2="745" stroke="#222" stroke-width="0.8" stroke-dasharray="2 2"/>
  <line x1="640" y1="745" x2="670" y2="745" stroke="#222" stroke-width="0.8" stroke-dasharray="2 2" marker-end="url(#arr)"/>
  <circle cx="670" cy="745" r="2.3" fill="#E1F5FE" stroke="#222" stroke-width="0.8"/>
  <text x="676" y="741" font-size="8" fill="#333">addr</text>

  <!-- oldest-match picker + data select -->
  <rect x="500" y="830" width="340" height="55" fill="#FDE6EE" stroke="#AD1457" stroke-width="1.3" rx="4"/>
  <text x="670" y="850" text-anchor="middle" font-size="10" font-weight="bold" fill="#880E4F">Oldest-match picker + data select</text>
  <text x="670" y="870" text-anchor="middle" font-size="9" fill="#880E4F">→ sq_fwd_data, sq_fwd_valid, sq_partial</text>

  <line x1="755" y1="800" x2="755" y2="830" stroke="#222" stroke-width="1.3" marker-end="url(#arr)"/>
  <circle cx="755" cy="830" r="2.3" fill="#FDE6EE" stroke="#222" stroke-width="0.8"/>
  <text x="763" y="824" font-size="8" fill="#333">match</text>

  <!-- SQ output at bottom of stage -->
  <line x1="670" y1="885" x2="670" y2="980" stroke="#222" stroke-width="1.3"/>

  <!-- D$ hit output at bottom of stage -->
  <polyline points="220,740 220,790 360,790 360,980" fill="none" stroke="#222" stroke-width="1.3"/>

  <!-- ================ PIPE REG ② → ③ ================ -->
  <use xlink:href="#pregbar_h" x="60" y="1010"/>
  <text x="500" y="1031" text-anchor="middle" font-size="11" font-weight="bold" fill="#BF360C">D$TAG → D$DATA  pipeline register</text>

  <line x1="220" y1="1042" x2="220" y2="1080" stroke="#222" stroke-width="1.3" marker-end="url(#arr)"/>
  <text x="230" y="1065" font-size="9" fill="#555">d$_hit, readWay</text>
  <line x1="670" y1="1042" x2="670" y2="1080" stroke="#222" stroke-width="1.3" marker-end="url(#arr)"/>
  <text x="680" y="1065" font-size="9" fill="#555">sq_fwd_data, sq_partial</text>

  <!-- ================ STAGE ③ D$DATA (y=1090 to y=1450) ================ -->
  <rect x="40" y="1090" width="880" height="360" fill="#F5FAFF" stroke="#1565C0" stroke-width="1.2" stroke-dasharray="6 4" rx="4"/>
  <text x="60" y="1115" font-size="15" font-weight="bold" fill="#0D47A1">③ D$DATA — Data Access + Forward  (MemoryAccessStage)</text>

  <!-- D$ data SRAM -->
  <use xlink:href="#sram_v" x="120" y="1140"/>
  <text x="190" y="1162" text-anchor="middle" font-size="11" font-weight="bold" fill="#B71C1C">D$ Data</text>
  <text x="190" y="1177" text-anchor="middle" font-size="10" fill="#B71C1C">way-muxed</text>

  <!-- MSHR (simplified as a block) -->
  <rect x="320" y="1145" width="140" height="70" fill="#FFCDD2" stroke="#C62828" stroke-width="1.3" rx="4"/>
  <text x="390" y="1168" text-anchor="middle" font-size="11" font-weight="bold" fill="#B71C1C">MSHR (×2)</text>
  <text x="390" y="1185" text-anchor="middle" font-size="9" fill="#B71C1C">miss fills,</text>
  <text x="390" y="1200" text-anchor="middle" font-size="9" fill="#B71C1C">pending data</text>

  <!-- 3:1 forward mux: SQ fwd / D$ / MSHR -->
  <use xlink:href="#mux3_v" x="200" y="1260"/>
  <text x="250" y="1322" text-anchor="middle" font-size="10" font-weight="bold" fill="#01579B">result MUX</text>

  <!-- SQ fwd → MUX port 0 -->
  <line x1="670" y1="1080" x2="670" y2="1245" stroke="#222" stroke-width="1.3"/>
  <line x1="670" y1="1245" x2="220" y2="1245" stroke="#222" stroke-width="1.3"/>
  <line x1="220" y1="1245" x2="220" y2="1260" stroke="#222" stroke-width="1.3" marker-end="url(#arr)"/>
  <text x="450" y="1236" font-size="9" fill="#555">sq_fwd_data</text>

  <!-- D$ data → MUX port 1 -->
  <line x1="190" y1="1230" x2="245" y2="1230" stroke="#222" stroke-width="1.3"/>
  <line x1="245" y1="1230" x2="245" y2="1260" stroke="#222" stroke-width="1.3" marker-end="url(#arr)"/>

  <!-- MSHR → MUX port 2 -->
  <line x1="390" y1="1215" x2="390" y2="1240" stroke="#222" stroke-width="1.3"/>
  <line x1="390" y1="1240" x2="280" y2="1240" stroke="#222" stroke-width="1.3"/>
  <line x1="280" y1="1240" x2="280" y2="1260" stroke="#222" stroke-width="1.3" marker-end="url(#arr)"/>

  <!-- MUX sel (control) enters from the side -->
  <line x1="180" y1="1285" x2="200" y2="1285" stroke="#1976D2" stroke-width="1" stroke-dasharray="4 2" marker-end="url(#arrBlue)"/>
  <circle cx="200" cy="1285" r="2.5" fill="#F5FAFF" stroke="#1976D2" stroke-width="1"/>
  <text x="204" y="1278" font-size="8" fill="#1976D2">sel</text>
  <text x="72" y="1308" font-size="9" fill="#1976D2">sel = {sq_partial, d$_hit, mshr_hit}</text>

  <!-- MUX output → writeback -->
  <line x1="250" y1="1290" x2="250" y2="1410" stroke="#222" stroke-width="1.5" marker-end="url(#arr)"/>
  <text x="260" y="1370" font-size="10" font-weight="bold" fill="#0D47A1">load_result</text>

  <!-- LRB capture: if load can't complete (cache miss, sq partial, mdp replay) -->
  <rect x="520" y="1260" width="310" height="140" fill="#FFF9C4" stroke="#F57F17" stroke-width="2" rx="6"/>
  <text x="675" y="1282" text-anchor="middle" font-size="11" font-weight="bold" fill="#F57F17">✦  LRB Capture (Optimization B)  ✦</text>
  <line x1="530" y1="1290" x2="820" y2="1290" stroke="#F57F17" stroke-width="0.5"/>
  <text x="675" y="1310" text-anchor="middle" font-size="9" fill="#F57F17">If  !d$_hit  OR  sq_partial  OR  mdp_replay:</text>
  <text x="675" y="1325" text-anchor="middle" font-size="9" fill="#F57F17">  form LRB_Entry{pc, addr, size, dst, alPtr,</text>
  <text x="675" y="1340" text-anchor="middle" font-size="9" fill="#F57F17">  lqId, reason, mshrId, sqBlockerId}</text>
  <text x="675" y="1362" text-anchor="middle" font-size="9" font-weight="bold" fill="#F57F17">NOT routed to global ReplayQueue</text>

  <line x1="460" y1="1330" x2="520" y2="1330" stroke="#F57F17" stroke-width="1.3" marker-end="url(#arrOrg)"/>
  <circle cx="520" cy="1330" r="2.5" fill="#FFF9C4" stroke="#F57F17" stroke-width="1"/>
  <text x="468" y="1318" font-size="9" fill="#F57F17">block</text>

  <!-- LRB enqueue arrow: capture originates in D$TAG, then side-routes to the LRB port -->
  <polyline points="920,940 930,940 930,1330 940,1330" fill="none" stroke="#F57F17" stroke-width="1.8" marker-end="url(#arrOrg)"/>
  <circle cx="920" cy="940" r="3" fill="#F5FAFF" stroke="#F57F17" stroke-width="1.2"/>
  <text x="912" y="934" text-anchor="end" font-size="8" fill="#F57F17">D$TAG capture</text>

  <!-- ================ LRB BLOCK (right side) y=100 to y=1450 ================ -->
  <rect x="940" y="80" width="420" height="1370" fill="#FFFDE7" stroke="#F57F17" stroke-width="1.8" stroke-dasharray="5 3" rx="6"/>
  <text x="1150" y="105" text-anchor="middle" font-size="14" font-weight="bold" fill="#F57F17">Load Replay Buffer  (LRB)</text>
  <text x="1150" y="122" text-anchor="middle" font-size="10" fill="#F57F17">8 entries, captures blocked loads</text>
  <text x="1150" y="137" text-anchor="middle" font-size="10" fill="#F57F17">replays directly into D$ADDR (no IQ round-trip)</text>

  <!-- LRB entry slots -->
  <g transform="translate(970, 160)">
    <rect x="0"   y="0" width="360" height="28" fill="white" stroke="#F57F17" stroke-width="1"/>
    <text x="180" y="18" text-anchor="middle" font-size="10" fill="#F57F17">entry 0: {addr, dst, alPtr, lqId, reason, mshrId}</text>
    <rect x="0"  y="32" width="360" height="28" fill="white" stroke="#F57F17" stroke-width="1"/>
    <text x="180" y="50" text-anchor="middle" font-size="10" fill="#F57F17">entry 1</text>
    <rect x="0"  y="64" width="360" height="28" fill="white" stroke="#F57F17" stroke-width="1"/>
    <text x="180" y="82" text-anchor="middle" font-size="10" fill="#F57F17">entry 2</text>
    <rect x="0"  y="96" width="360" height="28" fill="white" stroke="#F57F17" stroke-width="1"/>
    <text x="180" y="114" text-anchor="middle" font-size="10" fill="#F57F17">entry 3</text>
    <rect x="0"  y="128" width="360" height="28" fill="white" stroke="#F57F17" stroke-width="1"/>
    <text x="180" y="146" text-anchor="middle" font-size="10" fill="#F57F17">entry 4</text>
    <rect x="0"  y="160" width="360" height="28" fill="white" stroke="#F57F17" stroke-width="1"/>
    <text x="180" y="178" text-anchor="middle" font-size="10" fill="#F57F17">entry 5</text>
    <rect x="0"  y="192" width="360" height="28" fill="white" stroke="#F57F17" stroke-width="1"/>
    <text x="180" y="210" text-anchor="middle" font-size="10" fill="#F57F17">entry 6</text>
    <rect x="0"  y="224" width="360" height="28" fill="white" stroke="#F57F17" stroke-width="1"/>
    <text x="180" y="242" text-anchor="middle" font-size="10" fill="#F57F17">entry 7</text>
  </g>

  <!-- LRB watchers (MSHR done, SQ done, MDP resolved) -->
  <rect x="970" y="450" width="360" height="150" fill="white" stroke="#F57F17" stroke-width="1.3" rx="4"/>
  <text x="1150" y="470" text-anchor="middle" font-size="11" font-weight="bold" fill="#F57F17">Watchers + Replay Engine</text>
  <line x1="978" y1="478" x2="1322" y2="478" stroke="#F57F17" stroke-width="0.5"/>
  <text x="990" y="498" font-size="9" fill="#F57F17">• MSHR[mshrId].finished  → wake MSHR_PENDING loads</text>
  <text x="990" y="515" font-size="9" fill="#F57F17">• SQ[sqBlockerId].finished → wake SQ_PARTIAL_FWD loads</text>
  <text x="990" y="532" font-size="9" fill="#F57F17">• mdp_resolved           → wake MDP_REPLAY loads</text>
  <text x="990" y="555" font-size="10" font-weight="bold" fill="#F57F17">Pick oldest-ready entry → replay</text>
  <text x="990" y="575" font-size="9" fill="#F57F17">Replay has priority over fresh scheduler load at D$ADDR</text>

  <!-- LRB recovery block -->
  <rect x="970" y="620" width="360" height="70" fill="#FFEBEE" stroke="#C62828" stroke-width="1.3" rx="4"/>
  <text x="1150" y="640" text-anchor="middle" font-size="11" font-weight="bold" fill="#B71C1C">Recovery Walker</text>
  <line x1="978" y1="648" x2="1322" y2="648" stroke="#C62828" stroke-width="0.5"/>
  <text x="1150" y="665" text-anchor="middle" font-size="9" fill="#B71C1C">on redirect: invalidate entries whose</text>
  <text x="1150" y="680" text-anchor="middle" font-size="9" fill="#B71C1C">alPtr is newer than redirect point</text>

  <!-- LRB overflow behavior -->
  <rect x="970" y="710" width="360" height="55" fill="#E8F5E9" stroke="#2E7D32" stroke-width="1.3" rx="4"/>
  <text x="1150" y="730" text-anchor="middle" font-size="11" font-weight="bold" fill="#1B5E20">Full-LRB policy</text>
  <text x="1150" y="748" text-anchor="middle" font-size="9" fill="#1B5E20">stall new blocked load at D$DATA (single-lane)</text>
  <text x="1150" y="761" text-anchor="middle" font-size="9" fill="#1B5E20">do NOT stall scheduler or other pipes</text>

  <!-- === Replay output path: LRB → D$ADDR (wrap-around) === -->
  <text x="970" y="1180" font-size="10" font-weight="bold" fill="#2E7D32">Replay path → D$ADDR arbiter</text>
  <polyline points="1360,1180 1370,1180 1370,70 930,70 930,210 920,210" fill="none" stroke="#2E7D32" stroke-width="1.6" marker-end="url(#arrGreen)"/>
  <circle cx="1360" cy="1180" r="3" fill="#FFFDE7" stroke="#2E7D32" stroke-width="1.2"/>
  <text x="1328" y="1172" text-anchor="end" font-size="8" fill="#2E7D32">replay_out</text>
  <circle cx="920" cy="210" r="3" fill="#F5FAFF" stroke="#2E7D32" stroke-width="1.2"/>
  <text x="912" y="202" text-anchor="end" font-size="8" fill="#2E7D32">replay_in</text>
  <text x="1060" y="66" text-anchor="middle" font-size="10" font-weight="bold" fill="#2E7D32">LRB replay (bypass IQ)</text>

  <!-- Capture arrow label -->
  <circle cx="940" cy="1330" r="3" fill="#FFFDE7" stroke="#F57F17" stroke-width="1.2"/>
  <text x="928" y="1318" text-anchor="end" font-size="10" font-weight="bold" fill="#F57F17">capture</text>

  <!-- ================ D$RW stage (simplified) ================ -->
  <rect x="40" y="1460" width="880" height="60" fill="#F3E5F5" stroke="#6A1B9A" stroke-width="1.3" rx="4"/>
  <text x="480" y="1482" text-anchor="middle" font-size="13" font-weight="bold" fill="#4A148C">④ D$RW — Writeback to Physical Regfile</text>
  <text x="480" y="1500" text-anchor="middle" font-size="10" fill="#4A148C">load_result → physRF[destReg];  activeList[alPtr].done ← 1</text>
  <line x1="250" y1="1450" x2="250" y2="1460" stroke="#222" stroke-width="1.5" marker-end="url(#arr)"/>

  <!-- ================ LEGEND (y=1560) ================ -->
  <g transform="translate(40, 1580)">
    <text x="0" y="-8" font-size="11" font-weight="bold" fill="#333">Legend</text>
    <g transform="translate(0, 0)">
      <use xlink:href="#dff_v" transform="scale(0.45)"/>
      <text x="48" y="22" font-size="10" fill="#333">register</text>
    </g>
    <g transform="translate(130, 0)">
      <use xlink:href="#mux21_v" transform="scale(0.4)"/>
      <text x="36" y="22" font-size="10" fill="#333">2:1 MUX</text>
    </g>
    <g transform="translate(220, 0)">
      <use xlink:href="#sram_v" transform="scale(0.3)"/>
      <text x="50" y="22" font-size="10" fill="#333">SRAM</text>
    </g>
    <g transform="translate(310, 0)">
      <use xlink:href="#andg_v" transform="scale(0.55)"/>
      <text x="28" y="22" font-size="10" fill="#333">AND</text>
    </g>
    <g transform="translate(380, 0)">
      <use xlink:href="#eqg_v" transform="scale(0.5)"/>
      <text x="26" y="22" font-size="10" fill="#333">compare</text>
    </g>
    <g transform="translate(460, 0)">
      <use xlink:href="#addg_v" transform="scale(0.55)"/>
      <text x="26" y="22" font-size="10" fill="#333">adder</text>
    </g>
    <g transform="translate(530, 0)">
      <rect x="0" y="0" width="40" height="10" fill="#FFF3E0" stroke="#E65100" stroke-width="1.2"/>
      <polygon points="4,1 10,5 4,9" fill="none" stroke="#E65100" stroke-width="0.8"/>
      <text x="46" y="9" font-size="10" fill="#333">pipe reg bar</text>
    </g>
    <g transform="translate(650, 0)">
      <rect x="0" y="0" width="26" height="14" fill="#FFF9C4" stroke="#F57F17" stroke-width="1.5"/>
      <text x="32" y="10" font-size="10" fill="#333">NEW optimization</text>
    </g>
    <g transform="translate(780, 0)">
      <line x1="0" y1="6" x2="30" y2="6" stroke="#222" stroke-width="1.4" marker-end="url(#arr)"/>
      <text x="36" y="10" font-size="10" fill="#333">data</text>
    </g>
    <g transform="translate(850, 0)">
      <line x1="0" y1="6" x2="30" y2="6" stroke="#1976D2" stroke-width="1" stroke-dasharray="4 2" marker-end="url(#arrBlue)"/>
      <text x="36" y="10" font-size="10" fill="#333">control</text>
    </g>
    <g transform="translate(920, 0)">
      <line x1="0" y1="6" x2="30" y2="6" stroke="#F57F17" stroke-width="1.4" marker-end="url(#arrOrg)"/>
      <text x="36" y="10" font-size="10" fill="#333">LRB capture</text>
    </g>
    <g transform="translate(1020, 0)">
      <line x1="0" y1="6" x2="30" y2="6" stroke="#2E7D32" stroke-width="1.4" marker-end="url(#arrGreen)"/>
      <text x="36" y="10" font-size="10" fill="#333">LRB replay</text>
    </g>
  </g>
</svg>
